<svg width="222" height="222" viewBox="0 0 222 222" fill="none" xmlns="http://www.w3.org/2000/svg">
<g clip-path="url(#clip0_1_5)">
<rect width="222" height="222" rx="111" fill="white"/>
<circle cx="111" cy="111" r="111" fill="white"/>
<path d="M35.1029 135.824C34.6549 135.824 34.3029 135.696 34.0469 135.44C33.7909 135.248 33.7909 135.088 34.0469 134.96C35.4549 134.704 36.6709 134.192 37.6949 133.424C38.7189 132.592 39.5509 131.568 40.1909 130.352C41.5349 128.112 42.8469 125.872 44.1269 123.632C45.4069 121.328 46.6549 119.024 47.8709 116.72L57.0869 99.728C58.5589 97.104 59.8389 94.576 60.9269 92.144C62.0789 89.712 62.9749 87.952 63.6149 86.864C64.0629 86.032 64.8309 85.296 65.9189 84.656C67.0709 83.952 68.1909 83.408 69.2789 83.024C68.8949 83.024 68.5109 83.024 68.1269 83.024C67.7429 82.96 67.3269 82.928 66.8789 82.928C64.8949 82.928 62.7189 83.056 60.3509 83.312C58.0469 83.504 55.7749 83.824 53.5349 84.272C51.3589 84.72 49.4389 85.328 47.7749 86.096C46.1109 86.864 44.9909 87.792 44.4149 88.88C44.1589 89.456 43.9349 90.032 43.7429 90.608C43.5509 91.184 43.4549 91.76 43.4549 92.336C43.4549 93.808 43.9669 94.864 44.9909 95.504C45.0549 95.504 45.0869 95.568 45.0869 95.696C45.0869 95.824 44.9589 95.952 44.7029 96.08C44.5109 96.208 44.3189 96.24 44.1269 96.176C43.5509 95.856 42.8469 95.088 42.0149 93.872C41.1829 92.592 40.6709 91.536 40.4789 90.704C40.2869 89.936 40.1909 89.232 40.1909 88.592C40.1909 86.928 40.7349 85.648 41.8229 84.752C42.9109 83.792 44.2869 83.12 45.9509 82.736C47.6149 82.288 49.3109 82.032 51.0389 81.968C52.8309 81.84 54.3989 81.776 55.7429 81.776C57.7909 81.776 60.2229 81.776 63.0389 81.776C65.8549 81.712 68.4469 81.68 70.8149 81.68C71.3909 81.68 72.0309 81.68 72.7349 81.68C73.4389 81.616 74.1749 81.584 74.9429 81.584C76.6709 81.584 78.4629 81.68 80.3189 81.872C82.1749 82.064 83.8709 82.48 85.4069 83.12C86.9429 83.76 88.1269 84.752 88.9589 86.096C89.7909 87.504 90.2069 89.04 90.2069 90.704C90.2069 92.304 89.8869 93.904 89.2469 95.504C88.6069 97.104 87.8389 98.48 86.9429 99.632C86.3669 100.336 85.6949 101.04 84.9269 101.744C84.1589 102.448 83.2949 103.12 82.3349 103.76C81.3749 104.4 80.3189 105.008 79.1669 105.584C78.0789 106.096 76.7669 106.512 75.2309 106.832C75.1669 106.832 75.1029 106.928 75.0389 107.12C75.0389 107.312 75.1029 107.408 75.2309 107.408C75.5509 107.472 76.0949 107.568 76.8629 107.696C77.6949 107.76 78.4309 107.856 79.0709 107.984C81.3109 108.432 83.1669 109.392 84.6389 110.864C86.1749 112.272 86.9429 114.192 86.9429 116.624C86.9429 119.376 86.2069 121.904 84.7349 124.208C83.3269 126.512 81.5029 128.496 79.2629 130.16C77.0229 131.76 74.6869 133.008 72.2549 133.904C69.1829 135.056 65.6629 135.632 61.6949 135.632C59.3269 135.632 56.8629 135.408 54.3029 134.96C51.7429 134.512 49.4069 133.744 47.2949 132.656C46.8469 132.4 46.3989 132.208 45.9509 132.08C45.5029 131.888 45.0229 131.792 44.5109 131.792C43.6149 131.792 42.6549 132.048 41.6309 132.56C40.9909 132.816 40.1589 133.296 39.1349 134C38.1109 134.704 36.9589 135.28 35.6789 135.728C35.5509 135.792 35.3589 135.824 35.1029 135.824ZM58.6229 134.288C60.2869 134.288 61.9509 134.128 63.6149 133.808C65.2789 133.424 66.7829 132.976 68.1269 132.464C70.4949 131.568 72.6709 130.32 74.6549 128.72C76.6389 127.056 78.2389 125.104 79.4549 122.864C80.7349 120.56 81.3749 118 81.3749 115.184C81.3749 113.328 80.8949 111.92 79.9349 110.96C78.9749 109.936 77.7589 109.232 76.2869 108.848C74.8149 108.464 73.2789 108.272 71.6789 108.272C70.4629 108.272 69.3109 108.336 68.2229 108.464C67.1349 108.592 66.1429 108.752 65.2469 108.944C63.4549 109.264 61.8549 109.616 60.4469 110C60.1909 109.872 60.2229 109.648 60.5429 109.328C60.8629 108.944 61.2789 108.528 61.7909 108.08C62.3669 107.632 62.8149 107.28 63.1349 107.024C63.2629 106.896 63.5189 106.704 63.9029 106.448C64.3509 106.128 64.7029 105.968 64.9589 105.968C68.0949 105.968 70.8789 105.776 73.3109 105.392C75.8069 105.008 77.9509 104.08 79.7429 102.608C81.5349 101.072 83.0069 98.704 84.1589 95.504C84.7349 93.84 85.0229 92.208 85.0229 90.608C85.0229 88.752 84.5749 87.152 83.6789 85.808C82.7829 84.4 81.3429 83.568 79.3589 83.312C79.1029 83.248 78.8149 83.216 78.4949 83.216C78.1749 83.216 77.8549 83.216 77.5349 83.216C76.3189 83.216 74.9749 83.376 73.5029 83.696C72.0949 84.016 71.0389 84.624 70.3349 85.52C68.7349 87.632 67.1989 90.032 65.7269 92.72C64.2549 95.344 62.8469 98.032 61.5029 100.784C60.1589 103.472 58.8789 106 57.6629 108.368C56.1909 111.248 54.6869 114.16 53.1509 117.104C51.6149 120.048 50.1109 123.024 48.6389 126.032C48.2549 126.8 48.0629 127.536 48.0629 128.24C48.0629 129.52 48.8629 130.768 50.4629 131.984C51.5509 132.816 52.7989 133.424 54.2069 133.808C55.6789 134.128 57.1509 134.288 58.6229 134.288Z" fill="black"/>
<path d="M101.719 136C100.781 136 100.312 135.531 100.312 134.594V95.5938C100.312 95.1771 100.417 94.7812 100.625 94.4062L102.812 90.4375C103.208 89.7083 103.531 89.3438 103.781 89.3438H104.875C105.5 89.3438 105.812 89.7083 105.812 90.4375V134.594C105.812 135.531 105.344 136 104.406 136H101.719ZM112.906 119.594C112.906 114.698 114.198 110.656 116.781 107.469C119.385 104.26 123.188 102.656 128.188 102.656C133.188 102.656 136.979 104.26 139.562 107.469C142.167 110.656 143.469 114.698 143.469 119.594C143.469 124.49 142.167 128.542 139.562 131.75C136.979 134.938 133.188 136.531 128.188 136.531C123.188 136.531 119.385 134.938 116.781 131.75C114.198 128.542 112.906 124.49 112.906 119.594ZM118.719 119.594C118.719 123.969 119.583 127.208 121.312 129.312C123.042 131.417 125.333 132.469 128.188 132.469C131.042 132.469 133.333 131.417 135.062 129.312C136.792 127.208 137.656 123.969 137.656 119.594C137.656 115.219 136.792 111.979 135.062 109.875C133.333 107.771 131.042 106.719 128.188 106.719C125.333 106.719 123.042 107.771 121.312 109.875C119.583 111.979 118.719 115.219 118.719 119.594ZM148.781 119.594C148.781 115.115 149.865 111.177 152.031 107.781C154.198 104.365 157.365 102.656 161.531 102.656C163.927 102.656 165.844 103.052 167.281 103.844C168.719 104.635 170.01 105.719 171.156 107.094H171.219L171.406 104.594C171.469 103.656 171.875 103.188 172.625 103.188H175.25C176.188 103.188 176.656 103.656 176.656 104.594V136.25C176.656 140.25 175.729 143.375 173.875 145.625C172.042 147.896 168.406 149.031 162.969 149.031C159.323 149.031 156.594 148.615 154.781 147.781C152.969 146.969 151.677 146.104 150.906 145.188C150.344 144.5 150.312 143.917 150.812 143.438L152.531 141.75C153.01 141.292 153.677 141.438 154.531 142.188C155.635 143.188 156.698 143.896 157.719 144.312C158.74 144.75 160.5 144.969 163 144.969C165.833 144.969 167.896 144.365 169.188 143.156C170.5 141.948 171.156 139.448 171.156 135.656V133.781C171.156 133.135 171.177 132.5 171.219 131.875H171.156C170.073 133.312 168.792 134.448 167.312 135.281C165.854 136.115 163.927 136.531 161.531 136.531C157.365 136.531 154.198 134.833 152.031 131.438C149.865 128.021 148.781 124.073 148.781 119.594ZM154.594 119.594C154.594 123.427 155.25 126.531 156.562 128.906C157.896 131.281 160.146 132.469 163.312 132.469C165.562 132.469 167.427 131.708 168.906 130.188C170.406 128.646 171.156 126.312 171.156 123.188V116C171.156 112.875 170.406 110.552 168.906 109.031C167.427 107.49 165.562 106.719 163.312 106.719C160.146 106.719 157.896 107.906 156.562 110.281C155.25 112.656 154.594 115.76 154.594 119.594Z" fill="black"/>
</g>
<defs>
<clipPath id="clip0_1_5">
<rect width="222" height="222" rx="111" fill="white"/>
</clipPath>
</defs>
</svg>
